<?xml version="1.0" encoding="UTF-8"?>
<svg version="1.1" viewBox="0 0 2000 661" xmlns="http://www.w3.org/2000/svg">
<g transform="translate(-1.2121 1.1487)">
<svg width="2e3" height="661" data-background-color="#ffffff" viewBox="0 0 396 131" xmlns="http://www.w3.org/2000/svg" xmlns:xlink="http://www.w3.org/1999/xlink">
<g transform="translate(.24 -.22766)">
<svg width="395.52" height="131.46" viewBox="0 0 395.5199999999999 131.4551346862402">
<svg width="395.52" height="131.46" viewBox="0 0 395.5199999999999 131.4551346862402">
<svg width="395.52" height="131.46" viewBox="0 0 655.8416361904156 217.9757044353136">
<g transform="translate(260.32 64.144)">
<svg width="395.52" height="89.687" viewBox="0 0 395.52 89.68707482993197">
<svg width="395.52" height="89.687" viewBox="0 0 395.52 89.68707482993197">
<svg width="395.52" height="89.687" viewBox="0 0 395.52 89.68707482993197">
<g>
<svg width="395.52" height="89.687" data-palette-color="#085f63" viewBox="4.05 -35.5 198.42999999999998 45">
<path class="wordmark-text-0" d="m5.95 0h-0.8q-0.5 0-0.8-0.3t-0.3-0.8v-23.75q0-0.5 0.3-0.83 0.3-0.32 0.8-0.32h0.8q0.5 0 0.83 0.32 0.32 0.33 0.32 0.83v2.3q0.9-1.75 2.6-2.6t4.2-0.85h1.85q0.5 0 0.8 0.3t0.3 0.8v0.7q0 0.5-0.3 0.8t-0.8 0.3h-2.15q-3 0-4.75 1.75t-1.75 4.75v15.5q0 0.5-0.32 0.8-0.33 0.3-0.83 0.3zm25.25 0.5q-3.4 0-5.63-1.48-2.22-1.47-3.3-4.02-1.07-2.55-1.07-5.7v-14.2q0-0.5 0.3-0.8t0.8-0.3h0.85q0.5 0 0.8 0.3t0.3 0.8v13.95q0 8.55 7.45 8.55 3.55 0 5.7-2.27 2.15-2.28 2.15-6.28v-13.95q0-0.5 0.3-0.8t0.8-0.3h0.85q0.5 0 0.8 0.3t0.3 0.8v23.8q0 0.5-0.3 0.8t-0.8 0.3h-0.85q-0.5 0-0.8-0.3t-0.3-0.8v-2.35q-1.35 1.75-3.23 2.85-1.87 1.1-5.12 1.1zm21.45-0.5h-0.85q-0.5 0-0.8-0.3t-0.3-0.8v-23.8q0-0.5 0.3-0.8t0.8-0.3h0.85q0.5 0 0.8 0.3t0.3 0.8v2.35q1.35-1.75 3.27-2.85 1.93-1.1 5.13-1.1 3.4 0 5.67 1.47 2.27 1.48 3.4 4 1.12 2.53 1.12 5.73v14.2q0 0.5-0.29 0.8-0.3 0.3-0.8 0.3h-0.85q-0.5 0-0.81-0.3-0.29-0.3-0.29-0.8v-13.95q0-4-1.96-6.28-1.94-2.27-5.69-2.27-3.55 0-5.73 2.27-2.17 2.28-2.17 6.28v13.95q0 0.5-0.3 0.8t-0.8 0.3zm42.44 9.5h-0.85q-0.5 0-0.8-0.3t-0.3-0.8v-33.3q0-0.5 0.3-0.8t0.8-0.3h0.85q0.5 0 0.8 0.3t0.3 0.8v2.35q1.25-1.7 3.28-2.83 2.02-1.12 5.12-1.12 2.95 0 4.95 1.02 2 1.03 3.25 2.73t1.85 3.8 0.65 4.3q0.05 0.75 0.05 1.65t-0.05 1.65q-0.05 2.2-0.65 4.3t-1.85 3.8-3.25 2.72q-2 1.03-4.95 1.03-3.1 0-5.12-1.15-2.03-1.15-3.28-2.8v11.85q0 0.5-0.3 0.8t-0.8 0.3zm9.2-11.9q2.95 0 4.65-1.3t2.45-3.4 0.85-4.5q0.05-1.4 0-2.8-0.1-2.4-0.85-4.5t-2.45-3.4-4.65-1.3q-2.85 0-4.6 1.35t-2.57 3.37q-0.83 2.03-0.93 4.08-0.05 0.75-0.05 1.95t0.05 1.95q0.05 2 0.93 3.95 0.87 1.95 2.65 3.25 1.77 1.3 4.52 1.3zm19.85 2.4h-0.85q-0.5 0-0.8-0.3t-0.3-0.8v-33.3q0-0.5 0.3-0.8t0.8-0.3h0.85q0.5 0 0.8 0.3t0.3 0.8v33.3q0 0.5-0.3 0.8t-0.8 0.3zm16.25 0.5q-2.4 0-4.43-1-2.02-1-3.27-2.68-1.25-1.67-1.25-3.77 0-3.4 2.75-5.45t7.15-2.65l7.9-1.1v-1.75q0-2.65-1.63-4.18-1.62-1.52-5.17-1.52-2.6 0-4.2 1.02-1.6 1.03-2.2 2.68-0.25 0.75-0.95 0.75h-0.8q-0.6 0-0.85-0.33-0.25-0.32-0.25-0.77 0-0.7 0.52-1.75 0.53-1.05 1.63-2.08 1.1-1.02 2.85-1.72t4.25-0.7q2.95 0 4.87 0.8 1.93 0.8 3 2.07 1.08 1.28 1.53 2.83t0.45 3.05v16.65q0 0.5-0.3 0.8t-0.8 0.3h-0.85q-0.5 0-0.8-0.3t-0.3-0.8v-2.35q-0.6 0.9-1.7 1.8t-2.83 1.52q-1.72 0.63-4.32 0.63zm0.5-2.9q2.3 0 4.2-1t3.02-3.08q1.13-2.07 1.13-5.22v-1.7l-6.45 0.9q-4.1 0.55-6.2 1.9t-2.1 3.4q0 1.65 0.95 2.7t2.42 1.57q1.48 0.53 3.03 0.53zm21.24 2.4h-0.85q-0.5 0-0.8-0.3t-0.3-0.8v-23.8q0-0.5 0.3-0.8t0.8-0.3h0.85q0.5 0 0.8 0.3t0.3 0.8v2.35q1.35-1.75 3.28-2.85 1.92-1.1 5.12-1.1 3.4 0 5.68 1.47 2.27 1.48 3.4 4 1.12 2.53 1.12 5.73v14.2q0 0.5-0.3 0.8t-0.8 0.3h-0.85q-0.5 0-0.8-0.3t-0.3-0.8v-13.95q0-4-1.95-6.28-1.95-2.27-5.7-2.27-3.55 0-5.72 2.27-2.18 2.28-2.18 6.28v13.95q0 0.5-0.3 0.8t-0.8 0.3zm29.45 0h-0.8q-0.5 0-0.8-0.3t-0.3-0.8v-23.75q0-0.5 0.3-0.83 0.3-0.32 0.8-0.32h0.8q0.5 0 0.83 0.32 0.32 0.33 0.32 0.83v2.3q0.9-1.75 2.6-2.6t4.2-0.85h1.85q0.5 0 0.8 0.3t0.3 0.8v0.7q0 0.5-0.3 0.8t-0.8 0.3h-2.15q-3 0-4.75 1.75t-1.75 4.75v15.5q0 0.5-0.32 0.8-0.33 0.3-0.83 0.3z" fill="#085f63" data-fill-palette-color="primary"/>
</svg>
</g>
</svg>
</svg>
</svg>
</g>
<svg width="217.98" height="217.98" viewBox="0 0 217.9757044353136 217.9757044353136">
<svg/>
<svg width="217.98" height="217.98" viewBox="0 0 217.9757044353136 217.9757044353136">
<g fill="#49beb7" stroke="transparent">
<path d="m0 108.99c0-60.192 48.796-108.99 108.99-108.99s108.99 48.796 108.99 108.99-48.796 108.99-108.99 108.99-108.99-48.796-108.99-108.99zm108.99 100.9c55.725 0 100.9-45.174 100.9-100.9 0-55.725-45.174-100.9-100.9-100.9-55.725 0-100.9 45.174-100.9 100.9 0 55.725 45.174 100.9 100.9 100.9z" data-fill-palette-color="accent"/>
<ellipse cx="108.99" cy="108.99" rx="107.9" ry="107.9" stroke-width="0" data-fill-palette-color="accent"/>
</g>
<g transform="translate(56.426 46.283)">
<svg width="105.12" height="125.41" viewBox="0 0 105.12301005077924 125.40992904017614">
<svg class="icon-cg-0" width="105.12" height="125.41" enable-background="new 0 0 100 100" data-fill-palette-color="quaternary" version="1.1" viewBox="12.24039934355486 5.001114759973169 75.32552802774592 89.86204942486224" xml:space="preserve" xmlns="http://www.w3.org/2000/svg" xmlns:xlink="http://www.w3.org/1999/xlink"><path d="m56.3 18.2h-32.5s-5.3 7.1 0 7.1h23.7c0.9 0 1.2 0.6 0.8 1.3 0 0-6 10.8-8.3 14.3s-1.1 9 1.7 11c7.4 5.5 18.8 14.1 18.8 14.1 0.7 0.5 1.2 1.6 1.2 2.4v21.7c0 6.5 9.6 6.2 9.6 0v-27.1c0-0.8-0.5-1.9-1.2-2.5l-16.3-12c-0.6-0.5-0.8-1.5-0.4-2.2l10.2-17.9c-0.1 0-4.7-10.2-7.3-10.2zm-18.2 35.6-8.6 12.1s-4.4-3.1-9.5-7.2c-5-4.1-10.9 2.8-5.8 6.8 2.6 2 6.8 5.2 10.3 8 3.6 2.8 9 3.2 12.6-2.1 5.2-7.8 8.2-12 8.2-12l-7.2-5.6zm23.1-14s4.8 7 6.8 10.1c2.1 3 6.7 2.3 9.8 0s6.1-4.3 8.3-6c3.6-2.7-0.1-8.6-3.9-6-4.7 3.3-7.7 5.7-7.7 5.7-0.6 0.5-1.5 0.4-2-0.4l-6.6-11.2-4.7 7.8zm0.6-32.3c-3.7 6.2 0.9 12.7 3.8 14.4 2.1 1.3 5.1 2.6 8.3-2.7s3.3-8.8-3-12.6c-2.1-1.2-6.6-3.3-9.1 0.9z" fill="#fff" data-fill-palette-color="quaternary"/></svg>
</svg>
</g>
</svg>
</svg>
</svg>
</svg>
</svg>
<rect width="395.52" height="131.46" fill="none" visibility="hidden"/>
</g>
</svg>
</g>
</svg>
